<svg enable-background="new 0 0 1184.3 632" viewBox="0 0 1184.3 632" xmlns="http://www.w3.org/2000/svg"><circle cx="201.4" cy="415.8" fill="#606060" r="43.4"/><path d="m332.8 352.1c2.1 0 4.3.7 6.1 2.1l102.5 77.6c4.2 3.4 5.3 12.2.7 17.5-4.7 5.5-11.6 6.6-15.9 3.3l-99.5-83c-4.2-3.4-5-9.5-1.6-13.8 2-2.4 4.8-3.7 7.7-3.7z" fill="#565656"/><path d="m358.5 373.5h-56.2c-6.6 0-12-5.4-12-12v-5.1c0-6.6 5.4-12 12-12h56.2c6.6 0 12 5.4 12 12v5.1c0 6.6-5.4 12-12 12z" fill="#5a5a5a"/><path d="m196.4 245.8c-94.1 0-170.5 76.3-170.5 170.5s76.3 170.5 170.5 170.5 170.5-76.3 170.5-170.5-76.4-170.5-170.5-170.5zm0 303c-73.2 0-132.5-59.3-132.5-132.5s59.3-132.5 132.5-132.5 132.5 59.3 132.5 132.5-59.3 132.5-132.5 132.5z" fill="#5a5a5a"/><path d="m196.4 276.2c-77.4 0-140.1 62.7-140.1 140.1s62.7 140 140.1 140 140.1-62.7 140.1-140.1-62.8-140-140.1-140zm0 272.2c-73 0-132.1-59.2-132.1-132.1s59.2-132.1 132.1-132.1 132.1 59.2 132.1 132.1-59.2 132.1-132.1 132.1z" fill="#3f3f3f"/><path d="m196.4 232.3c-88 0-161 64.1-174.8 148.2l18.3-13.5c18.7-68.9 81.6-119.6 156.4-119.6 88.3 0 160.1 70.6 162 158.3l15.1 3.6c.1-97.7-79.2-177-177-177z" fill="#3f3f3f"/><path d="m912.7 360.8 1.3 7.2c-7.6-2.8-15.5-4.8-23.8-5.9-4.7-.6-9.5-.9-14.3-.9-13.2 0-25.9 2.3-37.6 6.6-4.7-.2-9.7-.3-14.9-.5-13.2-.4-27.6-.9-42-1.4-41.3-1.4-81.9-3-87.6-4.1-12.2-2.2-9.1-18.8-6.3-19.4 2.3-.5 12.3-.6 15.6-.6h1l201.8-18.8 1.9 10.3z" fill="#16a4de"/><path d="m1145.3 454c-3.2 1.1-66.5 2.2-128.7 2.6-8.5.1-17 .1-25.3.1-2.2 0-4.3 0-6.4 0-.7-5.2-1.7-10.4-3.1-15.3-.9-3.2-1.9-6.4-3.1-9.5 2.2 0 4.5.1 6.9.1 8.4.2 17.4.4 26.5.6 49.3 1.1 105.5 2.3 127.2 2.7 4 .1 6.8.1 8.2.2 16.6.3 4.1 16.3-2.2 18.5z" fill="#16a4de"/><path d="m710.2 161.7-4-.1c0-.7 1.1-69.9-2.3-89.1-3.1-17.8-32.6-18.5-32.9-18.5l.1-4c1.4 0 33.1.9 36.8 21.9 3.5 19.6 2.4 87 2.3 89.8z" fill="#2b2b2b"/><path d="m770.8 421.2c-9.3.1-18.6.2-27.4.3-31.9.2-57.7.3-58.8-.3-1.1-.5-1.7-37.8-2-85.8 0-2 0-4.1 0-6.2-.3-54.5-.3-120.9-.3-162.9 0-2.9 0-5.7 0-8.3 0-20.2.1-33 .1-33h-20.8l-3.4 130-257.7 51.5-34.5-112.4-18.8 4.8 4.6 13.8s-153.4 185.7-154.5 189.1c-1.2 3.5 8.1 27.7 12.7 27.7s179.9 12.7 179.9 12.7v-14.8c.5 2.3 1.3 4.4 2.5 5.5 2.7 2.5 108.4 18.9 108.4 18.9s130.1-1.4 235.4-2.7c8.7-.1 17.3-.2 25.6-.3 2.2 0 4.4-.1 6.5-.1 2-9.7 5.3-19 9.7-27.5-2.5 0-4.8 0-7.2 0zm-361.5-18.1c-.6 1.7-17 15.6-18.9 17.3-.6.5-.9 1.9-1 3.4-8.6-.4-161.2-6.9-164.5-8-3.5-1.2-8.1-16.1-6.9-18.5 1.2-2.3 141.2-159 141.2-159s50.7 163.1 50.1 164.8zm103.6 21.7s-2.4-5.2-19.5-16.6-50.8-19.5-53.2-19.2-12.1 3.6-12.1 3.6l-18.8-62 252-48.2.7 139.4z" fill="#16a4de"/><path d="m682.6 341.1c-3.8-.9-14.6-4.7-14.6-14.2 0-9.6-1.5-149.5-1.1-158.6.9-21.6 11.5-10.2 11.5-10.2 1.2-.3 2.5-.3 4-.1-.1 42.6-.2 123.8.2 183.1z" fill="#0b80ad"/><path d="m1170.4 161.5s-7.3 204.6-9.3 231c-1.7 22.9-9.3 37-21.9 42.8-1.9.9-3.9 1.6-6 2.1-8.2 2-64.5 4.2-119 4.3-8.7 0-17.4 0-25.8-.2-2.2 0-4.5-.1-6.6-.1-.9-3.2-1.9-6.4-3.1-9.5-11.3-29.5-34.9-53-64.6-63.9-7.6-2.8-15.5-4.8-23.8-5.9-.5-2.4-1-4.6-1.5-6.6-1.4-6-2.6-9.9-3.5-10.4-2-1.2-34.9-1.2-71.5-1-36.1.2-75.8.5-92.6.1-7.1-.2-13.1-1-18.1-2.3-10.7-2.8-16.9-7.6-20.5-12.6-2.7-3.7-4-7.4-4.9-10.5-2.5-9.3-2.5-152.3-2.5-152.3l7.1-.1z" fill="#16a4de"/><path d="m1168.2 166.2h-493.2c-2.8 0-5.1-2.3-5.1-5.1v-1.6c0-2.8 2.3-5.1 5.1-5.1h493.2c2.8 0 5.1 2.3 5.1 5.1v1.6c0 2.8-2.3 5.1-5.1 5.1z" fill="#5a5a5a"/><path d="m862.1 417.9s-.5 0-1.4 0c.1-.2.2-.3.3-.3 2.2.3.3.3 1.1.3z" fill="#fff"/><path d="m316.3 119c1.1.6 9.7 5.4 9.7 5.4s15.8-4.8 16.4-5.1 23.9-26.1 23.9-26.1-26.7.5-31.5.8-38.4 6.3-38.4 6.3 7.7 12 9.4 12.1 9.4 6 10.5 6.6z" fill="#2b2b2b"/><path d="m403.7 90.5c-2.4 1-44.5 3-51.3 4s-22.8 8.9-28.1 10.3c-2.3.6-5.8.8-10.1.6-5.6-.3-12.5-1.3-20.1-3.3-13.4-3.4-25.9-13-26.8-15.2-.5-1.3-.6-2.8-.4-4.3.4-2.6 2.1-5.2 5.5-6.4 5.2-1.9 45.8 1.3 63.4 1.9 13.8.5 39-3.4 53.2-1.5 14.2 2 17.1 12.9 14.7 13.9z" fill="#3f3f3f"/><path d="m314.2 105.4c-5.6-.3-12.5-1.3-20.1-3.3-13.4-3.4-25.9-13-26.8-15.2-.5-1.3-.6-2.8-.4-4.3 3.5-.9 9.4-2.1 15.7-1.1 9.7 1.5 20.2 4.3 24.5 9.5 3.4 4.2 6.2 9.6 7.1 14.4z" fill="#2b2b2b"/><path d="m862.1 417.9s-.5 0-1.4 0c.1-.2.2-.3.3-.3 2.2.3.3.3 1.1.3z" fill="#e9e9e9"/><path d="m347.2 198.9-22.4-76 16-4.6 25.2 75.8z" fill="#5a5a5a"/><path d="m667.2 89.6c0-.4-.4-19.2-.4-19.2s-36-34.2-41.5-40.4 2.8-18.9 12.8-11 45.7 42.7 47.6 46.1.9 6.8-1.1 8.3-6.2 1.9-6.2 1.9l.6 14.5s-4.3 3.1-5.9 2.7-5.8-2.3-5.9-2.9z" fill="#3f3f3f"/><path d="m391.6 426.7c4.6-4.6 19.6-22.6 32.3-25.6s46.8 2.1 54.9 5.4 25.9 19.6 26.2 25.6-5.4 22.6-7.5 25.9-33.8 17.8-43.4 19.6c-9.7 1.8-47.7-3.9-51-5.7s-10.3-8.1-11.5-12.4-4.3-28.6 0-32.8z" fill="#5a5a5a"/><circle cx="432.9" cy="442" fill="#3f3f3f" r="20.4"/><path d="m531.9 532.3c-2.1 0-4.3-.7-6.1-2.1l-102.5-77.6c-4.2-3.4-5.3-12.2-.7-17.5 4.7-5.5 11.6-6.6 15.9-3.3l99.5 83c4.2 3.4 5 9.5 1.6 13.8-1.9 2.5-4.8 3.7-7.7 3.7z" fill="#aaa"/><path d="m564.6 544.6h-56.2c-6.6 0-12-5.4-12-12v-5.1c0-6.6 5.4-12 12-12h56.2c6.6 0 12 5.4 12 12v5.1c0 6.6-5.4 12-12 12z" fill="#5a5a5a"/><circle cx="201.4" cy="415.8" fill="#3f3f3f" r="17.6"/><path d="m201.7 525.8c-61 0-110.6-49.6-110.6-110.6 0-1.9 1.6-3.5 3.5-3.5s3.5 1.6 3.5 3.5c0 57.1 46.5 103.6 103.6 103.6 1.9 0 3.5 1.6 3.5 3.5s-1.6 3.5-3.5 3.5z" fill="#eaeaea"/><path d="m879.2 564.6c-52.5 0-95.1-42.7-95.1-95.1 0-1.9 1.6-3.5 3.5-3.5s3.5 1.6 3.5 3.5c0 48.6 39.5 88.1 88.1 88.1 1.9 0 3.5 1.6 3.5 3.5s-1.6 3.5-3.5 3.5z" fill="#eaeaea"/><path d="m661.6 125 1.1-35.3 20.2.4 1 34.3-1.5.6z" fill="#3f3f3f"/><circle cx="879" cy="469.2" fill="#606060" r="34.5"/><circle cx="879" cy="469.2" fill="#3f3f3f" r="17.6"/><path d="m1016.6 456.6c-.5-5.1-1.3-10-2.3-14.9-.6-3.1-1.4-6.1-2.2-9.1-13.9-49.3-54-87.7-104.3-99.3-10.2-2.4-20.9-3.6-31.9-3.6-22.3 0-43.4 5.2-62.2 14.4-11.8 5.8-22.7 13.2-32.3 21.8-16.8 15.1-29.9 34.1-38 55.6-3.3 8.8-5.8 18-7.3 27.6-1.1 7.2-1.7 14.6-1.7 22.1 0 78.1 63.3 141.4 141.5 141.4 78.1 0 141.4-63.3 141.4-141.4 0-4.9-.2-9.8-.7-14.6zm-140.7 124.6c-60.7 0-110-49.2-110-110 0-7.7.8-15.2 2.3-22.5 2-9.7 5.3-19 9.7-27.5 12.6-24.6 34.2-43.8 60.4-53.3 11.7-4.3 24.4-6.6 37.6-6.6 4.9 0 9.6.3 14.3.9 8.3 1.1 16.2 3.1 23.8 5.9 29.7 11 53.4 34.4 64.6 63.9 1.2 3.1 2.3 6.3 3.1 9.5 1.4 5 2.4 10.1 3.1 15.3.6 4.7.9 9.5.9 14.4.2 60.7-49.1 110-109.8 110z" fill="#5a5a5a"/><g fill="#3f3f3f"><path d="m991.3 456.8c-.6-5.2-1.6-10.3-2.9-15.2-.8-3.2-1.8-6.4-2.9-9.5-12-33.5-38.9-60-72.8-71.3-7.7-2.6-15.7-4.3-24-5.3-4.2-.5-8.5-.7-12.8-.7-18.9 0-36.7 4.5-52.5 12.5-23 11.6-41.6 30.6-52.6 53.9-4.1 8.6-7.2 17.9-9.1 27.5-1.4 7.3-2.2 14.7-2.2 22.4 0 64.3 52.1 116.3 116.3 116.3s116.3-52.1 116.3-116.3c.1-4.8-.2-9.6-.8-14.3zm-115.4 124.4c-60.7 0-110-49.2-110-110 0-7.7.8-15.2 2.3-22.5 2-9.7 5.3-19 9.7-27.5 12.6-24.6 34.2-43.8 60.4-53.3 11.7-4.3 24.4-6.6 37.6-6.6 4.9 0 9.6.3 14.3.9 8.3 1.1 16.2 3.1 23.8 5.9 29.7 11 53.4 34.4 64.6 63.9 1.2 3.1 2.3 6.3 3.1 9.5 1.4 5 2.4 10.1 3.1 15.3.6 4.7.9 9.5.9 14.4.2 60.7-49.1 110-109.8 110z"/><path d="m878.9 318.4c-86 0-155.8 69.7-155.8 155.8 0 18.5 3.2 36.3 9.2 52.8l5.9-33.9c-.8-6.1-1.2-12.4-1.2-18.8 0-78.4 63.5-141.9 141.9-141.9 15.1 0 29.6 2.3 43.2 6.7l24.5-5.1c-20.5-10-43.4-15.6-67.7-15.6z"/></g></svg>