<svg enable-background="new 0 0 975.3 580" viewBox="0 0 975.3 580" xmlns="http://www.w3.org/2000/svg"><circle cx="197.9" cy="387.4" fill="#969696" r="62.8"/><path d="m234.9 387.4c0 20.5-16.6 37-37 37s-37-16.6-37-37c0-20.5 16.6-37 37-37s37 16.6 37 37z" fill="#5a5a5a"/><path d="m197.9 212.4c-96.6 0-175 78.3-175 175 0 96.6 78.3 175 175 175s175-78.3 175-175c0-96.6-78.4-175-175-175zm0 314.6c-77.1 0-139.6-62.5-139.6-139.6s62.5-139.6 139.6-139.6 139.6 62.5 139.6 139.6-62.5 139.6-139.6 139.6z" fill="#5a5a5a"/><path d="m197.9 234.5c-84.5 0-153 68.5-153 153s68.5 153 153 153 153-68.5 153-153c0-84.6-68.5-153-153-153zm0 292.5c-77.1 0-139.6-62.5-139.6-139.6s62.5-139.6 139.6-139.6 139.6 62.5 139.6 139.6-62.5 139.6-139.6 139.6z" fill="#aaa"/><path d="m178.8 360.3c-2.5 0-5.1-.5-7.6-1.9-5-2.8-135.4-127.8-136.6-129-3.7-3.7-6-8.5-6.4-13.5-.3-4.5.9-8.7 3.4-11.2 3.3-3.3 17-13.5 31.5-19.4 9.5-3.8 65.1-4.9 131.4-5.8 21.5-.3 38.5-.5 43.4-.9 17.2-1.4 98.3 8.7 108 10.8 6 1.3 10.8 5.6 12.8 11.5 1.7 5 1.2 10.2-1.6 13.5-2.3 2.9-44.9 40.5-82.7 73.2-81.1 70-86.4 71.2-88.4 71.6-1.9.6-4.5 1.1-7.2 1.1zm-3.6-8.7c2.4 1.3 5.4.8 9 0 3.9-1.7 28.4-21 85.7-70.5 40.7-35.2 78.8-69 81.1-71.7.7-.9 1-3.2.2-5.7-.5-1.6-2.3-5.3-7-6.3-9.4-2-89.5-12-105.7-10.7-5.2.4-22.3.6-43.9.9-44.7.6-119.6 1.6-128.5 5.2-13 5.3-26.1 14.9-28.8 17.6-.5.5-1.2 2.3-1 4.9.2 3 1.7 6 4.1 8.4 6.9 7.1 127.8 122.5 134.8 127.9z" fill="#16a4de"/><path d="m51.7 199.5c.4.5 254.8-8.3 254.8-8.3l-70-8.3s-163.9 4.5-171 6.6-14.6 9-13.8 10z" fill="#16a4de"/><path d="m739.9 230.5-4.9-.7c.1-.8 11.6-78 7.8-115.5-3.7-36-38.4-46.5-39.9-46.9l1.4-4.8c.4.1 39.5 11.8 43.5 51.2 3.8 38.1-7.4 113.5-7.9 116.7z" fill="#5a5a5a"/><path d="m788.9 329.5c-32 0-58 25.9-58 58 0 32 25.9 58 58 58 32 0 58-26 58-58 0-32.1-26-58-58-58zm0 109.7c-28.6 0-51.8-23.2-51.8-51.8s23.2-51.8 51.8-51.8 51.8 23.2 51.8 51.8-23.2 51.8-51.8 51.8z" fill="#969696"/><path d="m788.9 212.4c-96.6 0-175 78.3-175 175 0 96.6 78.3 175 175 175s175-78.3 175-175c0-96.6-78.3-175-175-175zm0 314.6c-77.1 0-139.6-62.5-139.6-139.6s62.5-139.6 139.6-139.6 139.6 62.5 139.6 139.6c.1 77.1-62.5 139.6-139.6 139.6z" fill="#5a5a5a"/><path d="m788.9 234.5c-84.5 0-153 68.5-153 153s68.5 153 153 153 153-68.5 153-153c0-84.6-68.5-153-153-153zm0 292.5c-77.1 0-139.6-62.5-139.6-139.6s62.5-139.6 139.6-139.6 139.6 62.5 139.6 139.6c.1 77.1-62.5 139.6-139.6 139.6z" fill="#aaa"/><path d="m812.1 207.3-14.6 9.6c-3.2-.2-6.4-.3-9.6-.3-94.9 0-171.9 77-171.9 171.9 0 19.1 3.1 37.6 8.9 54.8-3.1 2.8-6.2 5.7-8.8 8.2-7.2-19.6-11.1-40.8-11.1-62.9 0-101 81.9-182.9 182.9-182.9 8.2 0 16.3.5 24.2 1.6z" fill="#16a4de"/><path d="m693.7 179.1h18v64.9h-18z" fill="#eaeaea" transform="matrix(.9325 -.361 .361 .9325 -29.001 267.9849)"/><path d="m625.7 65.2c-1.7 2.2-1.5 10.2-1.1 11.7s4.4 7.9 4.4 7.9 29.1-10.6 33.5-10.8 38.6-1.3 42.8-2.9 9.7-20.1 6-25.6-33.5-9.5-38.8-9.3-42 22.9-46.8 29z" fill="#eaeaea"/><path d="m646.5 38.4s8.1 19.4 13 28.1c5 9 22.8 4.3 18.6-8.1-2.8-8.5-14-33.7-16.2-38.2-1.2-2.6-6.9-6.8-12.5-4.8-11.8 4.3-26.9 10.2-33.9 13.4-8.8 4-2.8 21.5 9.2 17.1 12.4-4.5 21.8-7.5 21.8-7.5z" fill="#3f3f3f"/><path d="m657.5 75.3s-8.8 1.4-16.7 4.3c-7.9 3-11.9 5.3-11.9 5.3l3.2 10.9s-95.2 65.2-120.2 68.2-129.9-8-138.9-10.6c-9-2.5-11.6-7.4-13.4-12-1.9-4.6-23.4-70-23.4-70l-15.8 5.6s64.9 207.8 66 217.8-6.5 65.1-8.8 67.2-4.4 8.3-13.2 9.4-174.1 1.5-177.4 1.8c-6.1.6-6.8 12.1.9 14.4s243.2 46.4 251.6 45.6c8.3-.9 22-20.5 24.8-27.4 2.8-6.8 36.2-130.3 50.7-149.2s22.9-25.9 40.5-37.8 86.8-64.2 92.8-64.2 6.4 2.7 8.1 6 5.4 13.1 5.4 13.1 8.1-3.9 11.8-1.7c3.7 2.3 10 17.2 10 17.2l17.6-7.9zm-156.5 123.7c-37.7 23.1-89.7 54.9-91.5 55.1-.2 0-.4 0-.6 0-3.1-.7-9.3-8.7-15.4-15.3-6.5-7.1-17.8-50.2-20-56.1s3.9-10.5 6.5-10.5c0 0 120.2 12.8 127.7 12.8 7.4 0 31-9.2 31.8-9.5-.8.4-17.4 10.6-38.5 23.5zm143.8-71.6c-.5.9-2 3.3-4.7 3.3s-9.6-.6-20 2.3-18.2 6.8-18.8 6.6-1.2-.6-.9-1.2c0 0 34.1-20.4 35.5-20.7 1.3-.3 4.8-.2 6 1.5 1.3 1.5 3.4 7.2 2.9 8.2z" fill="#16a4de"/><path d="m501 199c-11.6 43.7-47.2 177.6-49.2 184.4-2.4 8.2-6.4 9.3-9 9.8s-26.8 2.1-32.6.3c-5.8-1.9-25.7-12.5-25.2-18.3s22.8-87.2 24.1-96c.8-5.1.3-16.5-.3-25.1.2 0 .4.1.6 0 1.9-.2 53.9-32 91.6-55.1z" fill="#eaeaea"/><path d="m435 361.5c-27.3 0-49.5 22.2-49.5 49.5s22.2 49.5 49.5 49.5 49.5-22.2 49.5-49.5-22.2-49.5-49.5-49.5zm32.6 42.3h-27.3v-26.1c0-4 3.9-6.9 7.7-5.6 11.4 3.8 20.6 12.5 25 23.5 1.6 3.9-1.2 8.2-5.4 8.2zm-40.4-25.2v25.2h-24.8c-4.2 0-7-4.2-5.4-8.1 4.1-10.1 12.1-18.2 22.1-22.5 3.8-1.6 8.1 1.2 8.1 5.4zm-25.4 38.3h25.3v26.5c0 4.2-4.3 7-8.2 5.4-10.6-4.5-18.9-13.3-22.7-24.2-1.3-3.8 1.6-7.7 5.6-7.7zm38.5 27.4v-27.4h27.8c4 0 6.9 4 5.6 7.8-4.2 11.9-13.7 21.2-25.7 25.2-3.8 1.3-7.7-1.6-7.7-5.6z" fill="#5a5a5a"/><path d="m491.9 483.7c-2.5 0-5.1-1-7-3l-59.6-62.2c-3.6-3.8-4.8-11.6.4-15.9 5.3-4.4 13.9-3.8 17.5 0l55.5 65.2c3.6 3.8 3.4 9.9-.5 13.4-1.6 1.6-4 2.5-6.3 2.5z" fill="#969696"/><path d="m520.1 494.9h-47.3c-6.4 0-11.6-5.2-11.6-11.6 0-6.4 5.2-11.6 11.6-11.6h47.3c6.4 0 11.6 5.2 11.6 11.6 0 6.4-5.2 11.6-11.6 11.6z" fill="#5a5a5a"/><path d="m196.5 198.8c-78.4 0-145.5 48.1-173.4 116.5 1.1 7.4 1 19.4 2.9 19.2 1.4-.2 6.2-6.2 10.4-11.7.8-2.1 1.7-4.2 2.6-6.3 26.7-60.3 87.1-102.5 157.4-102.5 92 0 167.1 72.2 171.8 163 5.4-.8 11.2-1.7 15-2.4-5.7-98.1-87.2-175.8-186.7-175.8z" fill="#16a4de"/><path d="m197.9 501.5c-62.9 0-114.1-51.2-114.1-114.1 0-1.7 1.3-3 3-3s3 1.3 3 3c0 59.6 48.5 108.1 108.1 108.1 1.7 0 3 1.3 3 3s-1.4 3-3 3z" fill="#eaeaea"/><path d="m813.7 387.4c0 13.7-11.1 24.8-24.8 24.8s-24.8-11.1-24.8-24.8 11.1-24.8 24.8-24.8 24.8 11.1 24.8 24.8z" fill="#5a5a5a"/><path d="m788.9 501.5c-62.9 0-114.1-51.2-114.1-114.1 0-1.7 1.3-3 3-3s3 1.3 3 3c0 59.6 48.5 108.1 108.1 108.1 1.7 0 3 1.3 3 3s-1.3 3-3 3z" fill="#eaeaea"/><path d="m63.9 254.5-38.9 23-1.9 37.8 3.1 2.4 30.6-39.2z" fill="#16a4de"/><path d="m289.3 61s11.3 5.7 13.6 6.6 17.6 9.3 17.6 9.3 15.5-4.6 15.8-5.6 5-8.7 5-8.7l19.6-16.2s-28.3-2.6-40.4.2c-12.1 2.9-33.1 10.6-31.2 14.4z" fill="#2b2b2b"/><path d="m396.4 48.3c-.2.6-.6 1-1.1 1.1-2.5.8-50.8-.9-64.6.4s-36.8 12.3-44.2 13.4-32.7-20.2-32.7-20.2c-2.5-2.5-.8-12.7 4.5-15.1.7-.3 1.5-.6 2.5-.8 6.9-1.3 21.4-.1 37.7 1.3 18.7 1.7 69.3.8 74.8.9 5.5.2 16.6 2.1 20.2 7.4 2.9 4.3 3.8 9.3 2.9 11.6z" fill="#3f3f3f"/><path d="m396.4 48.3c-1.1-.2-2.1-.6-2.8-1.1-2.7-1.9-3.3-4.6-8.1-8.9-4.8-4.2-27.8-2-42.2-1.3-14.4.6-48.5 3.4-64.7.1-10.8-2.2-15.7-6.9-17.6-10 6.9-1.3 21.4-.1 37.7 1.3 18.7 1.7 69.3.8 74.8.9 5.5.2 16.6 2.1 20.2 7.4 2.7 4.3 3.6 9.3 2.7 11.6z" fill="#5a5a5a"/><g fill="#16a4de"><path d="m759.7 390.6-56-144.5 21.4-8.3 56 144.5s3.2 6.1-8 9.8-13.4-1.5-13.4-1.5z"/><path d="m189.7 353.2s15.6 25.7 19.2 27.8 13.7.2 13.1-3-16.8-34.8-16.8-34.8l-9.1 5.4c-.1.1-5.6 5-6.4 4.6z"/></g></svg>