<svg enable-background="new 0 0 991 627" viewBox="0 0 991 627" xmlns="http://www.w3.org/2000/svg"><path d="m409.2 422.3h-42.6c-3.7 0-6.7-3-6.7-6.7v-6.9c0-3.7 3-6.7 6.7-6.7h42.6c3.7 0 6.7 3 6.7 6.7v6.9c0 3.7-3 6.7-6.7 6.7z" fill="#474747"/><path d="m434.4 485.8c10.7 8.4 28.8-3.7 19.3-18.6s-57.2-51.2-62.4-56c-6.7-6.2-18 .8-15.1 6.9 2.9 6.3 51.1 62.2 58.2 67.7z" fill="#b7b7b7"/><path d="m288.8 338.2-2.5-3.1c3.5-2.8 34.5-27.6 44.4-28 2.3-.1 6 1.4 12.1 3.9 21.8 9 72.8 29.9 133.8-1.5 27.2-14 85-48.5 138.6-84.7 62.7-42.4 101-74.6 108-90.6 15.8-36.2-4.1-56.3-5-57.1l2.8-2.9c.2.2 22.8 22.7 5.8 61.6-16.7 38.5-191.6 148-248.3 177.2-24.9 12.8-48.1 17.2-68.5 17.2-30.9 0-55.2-10-68.7-15.5-4.8-2-9-3.7-10.4-3.6-6.5.2-28.7 16.3-42.1 27.1z" fill="#5a5a5a"/><path d="m190.9 264.5c-96.4 0-174.6 78.2-174.6 174.6s78.2 174.6 174.6 174.6 174.6-78.2 174.6-174.6c-.1-96.4-78.2-174.6-174.6-174.6zm0 325.4c-83.3 0-150.9-67.5-150.9-150.8s67.5-150.8 150.8-150.8 150.8 67.5 150.8 150.8c.1 83.3-67.5 150.8-150.7 150.8z" fill="#5a5a5a"/><path d="m190.9 285.2c-85 0-153.9 68.9-153.9 153.9s68.9 153.9 153.9 153.9 153.9-68.9 153.9-153.9-68.9-153.9-153.9-153.9zm0 286.8c-73.4 0-133-59.5-133-133 0-73.4 59.5-133 133-133s133 59.5 133 133c-.1 73.5-59.6 133-133 133z" fill="#aaa"/><path d="m190.2 547c-59.2 0-107.3-48.1-107.3-107.3 0-1.9 1.6-3.5 3.5-3.5s3.5 1.6 3.5 3.5c0 55.3 45 100.3 100.3 100.3 1.9 0 3.5 1.6 3.5 3.5s-1.5 3.5-3.5 3.5z" fill="#eaeaea"/><path d="m800.7 264.5c-96.4 0-174.6 78.2-174.6 174.6s78.2 174.6 174.6 174.6 174.6-78.2 174.6-174.6-78.2-174.6-174.6-174.6zm0 325.4c-83.3 0-150.8-67.5-150.8-150.8s67.5-150.8 150.8-150.8 150.8 67.5 150.8 150.8-67.5 150.8-150.8 150.8z" fill="#5a5a5a"/><path d="m800.7 285.2c-85 0-153.9 68.9-153.9 153.9s68.9 153.9 153.9 153.9 153.9-68.9 153.9-153.9-68.9-153.9-153.9-153.9zm0 286.8c-73.4 0-133-59.5-133-133 0-73.4 59.5-133 133-133s133 59.5 133 133-59.6 133-133 133z" fill="#aaa"/><path d="m800.1 547c-59.2 0-107.3-48.1-107.3-107.3 0-1.9 1.6-3.5 3.5-3.5s3.5 1.6 3.5 3.5c0 55.3 45 100.3 100.3 100.3 1.9 0 3.5 1.6 3.5 3.5s-1.6 3.5-3.5 3.5z" fill="#eaeaea"/><path d="m677.2 90c.2-.6.6-36.9.6-36.9s-29.2-17.9-37.8-24.2c-9.9-7.2-.1-28.8 15.6-18.1 14.5 9.9 59.4 48.6 67.4 56.1 7 6.7-3.2 17.1-14.6 7.4-5.5-4.7-12.1-9.9-12.1-9.9s1.7 25.5 1.5 29.3-4.1 8.5-4.1 8.5l-13.2-9.7z" fill="#5a5a5a"/><circle cx="190.9" cy="439.1" fill="#5a5a5a" r="24.1"/><path d="m199.1 430.2c-1.3 2.8.9 8 3.4 9.1.4.2 4.4.7 10.9 1.4 36.5 4.1 151.7 15.2 151.7 15.2l-2.9 15.9s-158.4-15.1-161.2-15.9c-.3-.1-.6-.2-1-.4-3.7-1.5-12-6.1-12.1-6.6s2.5-6.5 2.9-7.1c.4-.7-3-19.5-2.3-21.5 0 0 .1-.1.2-.2 7.1-5.8 183.5-112.3 183.5-112.3s3.4 1 5.6 4.3c2.2 3.4-.6 11.7-.6 11.7s-133.1 78-169.2 100.5c-5.4 3.4-8.7 5.5-8.9 5.9z" fill="#eaeaea"/><path d="m670.2 141.8-28 11s4 10 3 13-187 120-203 124-46 1-46 1l-5-4-3-8-19 8 4 16-1 5s3 1 4 4 1 12 1 12l4 1 45 132-61-4-3 19 60 5s8 6 21 5 19-11 19-11l212-228 7 8 29-12zm-223 299c-3 0-6-4-6-4l-39-121s26 3 53-7 200-121 200-121l8 18s-213 235-216 235z" fill="#16a4de"/><path d="m670.2 141.8-4-10-24.9 9.9.9 11.1z" fill="#9e9e9e"/><path d="m666.2 131.8-1.5-6.1 29-23.6-16.1-12.8-43.5 31.4 7.2 21z" fill="#eaeaea"/><path d="m388.2 278.8-19 8-27.9-89-4.7-14.9 17.5-6.1 6.2 18.6z" fill="#5a5a5a"/><path d="m435.6 160.9c-2.7 1-75.9 21.2-99.2 24.3-2.7.4-4.7.5-5.9.4-11.4-1.4-47.1-20.6-50.9-28.3-3.9-7.8.5-14.4 2.3-14.4 9.6.2 125.2 0 141 2.5 15.7 2.4 15.7 14.3 12.7 15.5z" fill="#3f3f3f"/><path d="m336.4 185.2c-2.7.4-4.7.5-5.9.4-11.4-1.4-47.1-20.6-50.9-28.3-3.9-7.8.5-14.4 2.3-14.4 0 0 40.9 11.4 47.1 20.6 4.9 7.3 8.9 16.1 7.4 21.7z" fill="#2b2b2b"/><path d="m213.4 440.7c-1.2 7.1-6.5 12.9-13.4 14.8-1.6.4-3.3.7-5 .7-10.3 0-18.6-8.3-18.6-18.6 0-8.1 5.1-14.9 12.3-17.5 2-.7 4.1-1.1 6.3-1.1 5 0 9.6 2 13 5.3-5.5 3.4-8.7 5.6-8.9 5.9-1.3 2.8.9 8 3.4 9.1.4.2 4.4.7 10.9 1.4z" fill="#eaeaea"/><circle cx="687.2" cy="93.4" fill="#eaeaea" r="9"/><path d="m360.3 195.4-19 2.4-4.7-14.9 17.5-6.1z" fill="#3f3f3f"/><path d="m437.8 428.3c-26.9 0-48.7 21.8-48.7 48.7s21.8 48.7 48.7 48.7 48.7-21.8 48.7-48.7-21.8-48.7-48.7-48.7zm0 85.2c-20.1 0-36.5-16.3-36.5-36.5s16.3-36.5 36.5-36.5c20.1 0 36.5 16.3 36.5 36.5 0 20.1-16.3 36.5-36.5 36.5z" fill="#e3e5e4"/><path d="m437.7 446c-17 0-30.7 13.8-30.7 30.7 0 17 13.8 30.7 30.7 30.7 17 0 30.7-13.8 30.7-30.7 0-17-13.7-30.7-30.7-30.7z" fill="none"/><path d="m437.7 438.9c-20.9 0-37.8 16.9-37.8 37.8s16.9 37.8 37.8 37.8 37.8-16.9 37.8-37.8-16.9-37.8-37.8-37.8zm0 68.5c-17 0-30.7-13.8-30.7-30.7 0-17 13.8-30.7 30.7-30.7 17 0 30.7 13.8 30.7 30.7 0 17-13.7 30.7-30.7 30.7z" fill="#5a5a5a"/><path d="m437.7 441.8c-19.3 0-34.9 15.6-34.9 34.9s15.6 34.9 34.9 34.9 34.9-15.6 34.9-34.9-15.6-34.9-34.9-34.9zm-30.4 30.5c.7-5.2 2.8-10 5.8-14 .8-1.1 2.5-1.2 3.5-.2l16.9 16.9h-23.9c-1.4-.1-2.5-1.3-2.3-2.7zm5.8 22.8c-3-4-5.1-8.8-5.8-14-.2-1.4.9-2.6 2.3-2.6h23.8l-16.9 16.9c-.9.9-2.5.8-3.4-.3zm22.8 9.7c0 1.4-1.2 2.5-2.6 2.3-5.2-.7-10-2.8-14-5.8-1.1-.8-1.2-2.5-.2-3.5l16.8-16.8zm0-32.4-16.9-16.9c-1-1-.9-2.6.2-3.5 4-3 8.8-5.1 14-5.8 1.4-.2 2.6.9 2.6 2.3v23.9zm26.5-14.1c3 4 5.1 8.8 5.8 14 .2 1.4-.9 2.6-2.3 2.6h-23.9l16.9-16.9c1-.9 2.6-.8 3.5.3zm-22.9-9.8c0-1.4 1.2-2.5 2.6-2.3 5.2.7 10 2.8 14 5.8 1.1.8 1.2 2.5.2 3.5l-16.9 16.9v-23.9zm16.6 52.8c-4 3-8.8 5.1-14 5.8-1.4.2-2.6-.9-2.6-2.3v-23.8l16.8 16.8c1 1 .9 2.7-.2 3.5zm12-20.2c-.7 5.2-2.8 10-5.8 14-.8 1.1-2.5 1.2-3.5.2l-16.3-16.3-.6-.6h23.8c1.6.1 2.6 1.3 2.4 2.7z" fill="#5a5a5a"/><path d="m442.9 463.1c-11.6-6.9-28.1 7.3-16.9 20.8s70 46.2 70 46.2 18.1 1.7 14.4-4-59.8-58.4-67.5-63z" fill="#aaa"/><path d="m526 547.2h-54.5c-3.7 0-6.7-3-6.7-6.7v-11.2c0-3.7 3-6.7 6.7-6.7h54.5c3.7 0 6.7 3 6.7 6.7v11.2c0 3.7-3 6.7-6.7 6.7z" fill="#5a5a5a"/><circle cx="804.2" cy="441.6" fill="#5a5a5a" r="22.8"/><path d="m708.8 239.4s20.4 37.1 26.3 47.1 71.2 140.8 75.8 148.3 5.3 10.9.3 14.6c-4.9 3.7-11.9 2.4-20.4-11.5s-109.6-187.1-109.6-187.1z" fill="#eaeaea"/></svg>