<svg enable-background="new 0 0 1009 630" viewBox="0 0 1009 630" xmlns="http://www.w3.org/2000/svg"><path d="m119.9 441.6c0 57.3 46.5 103.8 103.8 103.8" style="fill:none;stroke:#eaeaea;stroke-width:7;stroke-linecap:round;stroke-linejoin:round;stroke-miterlimit:10"/><path d="m223.6 266.8c-96.4 0-174.6 78.2-174.6 174.6s78.2 174.6 174.6 174.6 174.6-78.2 174.6-174.6-78.2-174.6-174.6-174.6zm0 325.4c-83.3 0-150.8-67.5-150.8-150.8s67.5-150.8 150.8-150.8 150.8 67.5 150.8 150.8-67.5 150.8-150.8 150.8z" fill="#5a5a5a"/><path d="m224.3 287.5c-84.7 0-153.4 68.7-153.4 153.4s68.7 153.4 153.4 153.4 153.4-68.7 153.4-153.4-68.7-153.4-153.4-153.4zm0 293.4c-77.3 0-140-62.7-140-140s62.7-140 140-140 140 62.7 140 140-62.7 140-140 140z" fill="#aaa"/><path d="m406.2 424.7-17.8-.2c-.1-.9-.1-1.8-.2-2.8-33.2-2.7-144.3-13.8-147.5-13.8-3.8 0-7-2.3-11.9-6.3-4.9-3.9-14.7-4.5-14.7-4.5-5.1 0-9.8 1.7-12.1.6-.9-.4-1.1-2.8-2.1-5-9.9-37.5-37.6-66.7-76.8-66.7-4.1 0-8.2.3-12.2 1-5.7.1-22.3 4.8-36.8 12.3-11.6 6-21.3 14.9-26.8 17.3-.4.2-.8.4-1.2.5-.7.3-1.3.5-2 .8-16.6 5.9-29.2-3.5-29.8-5.4-.7-2 7.7-4.1 14.2-8.4 6.1-4.1 24.9-50.7 24.9-50.7s12.8.8 28.6 0c4.7-.2 20-14 25.9-17.9 30.1-20.1 70.3-29.8 109.2-29.8 101 .1 183.6 79.3 189.1 179z" fill="#969696"/><path d="m95.7 306.6c-3.2 2.8-3 10.8 3.2 10.1s38.5-10.8 73.4 11.2 37.1 50.7 43.3 55c6.2 4.4 11.5 2.3 13.3.2s82.5-69.9 86.9-73.6 2.1-6.9-2.3-10.5c-4.4-3.7-43.8-36.2-104.1-36-66.6.3-109.9 40.3-113.7 43.6z" fill="#eaeaea"/><path d="m346.6 337.2c-9.6 6.3-69.8 51.7-73 54.4-3.3 2.7-2.5 8.5 3.8 10.1s102 7.9 105.6 6.3 6-3 5.7-8.8c-.3-5.7-7.4-23.3-12.9-35s-16.4-25.2-18.3-27.4c-1.9-2-6.3-2.6-10.9.4z" fill="#eaeaea"/><path d="m672.2 176.1-5.1-11.5 10.1-6.4s-30.3-96.1-32-106.6-2.2-9.6 2.4-13.5c2.2-1.9 25.9 5.5 29 14 3.3 9-17.7 7-14.4 22.1 1 4.8 35.1 81.4 35.1 81.4l3 12.8z" fill="#3f3f3f"/><path d="m734.1 211.5c.2-2.9-7.9-3.2-7.9.5s17.2 49.7 17.2 49.7l-43.6 15.1s-2.5-6.4-4-10.4c-1.4-3.6-2.5-7.4-5.4-5.4-1.4 1-24.9 36.4-50.8 75.7-26.8 40.6-56.3 85.3-72.4 98.5-26.1 21.5-58.5 30.9-58.5 30.9l-14.4-28.4s16.1-4.9 30.1-10.7 28.8-20.6 31.7-23.9.8-5.8-4.5-4.5c-5.3 1.2-30.5 5.5-53.5 3.7-20.6-1.6-34.6-5.4-39.1-7s-7.4-4.5-7 .4 9.1 27.2 9.1 27.2l-33.8 6.2s-3.9-17-23.5-69.9c-25.3-68.2-100.4-99.4-103-99.8-2.6-.3-9.5 0-10.8-1s-1.4-55.5-1.3-58.1c.2-2.6 21-2.4 21.4.9.4 3.2.4 44.7 3.7 48.5 2.5 2.8 25.1 11.3 45 27.5 28.4 23.2 42.4 50.1 44.6 53.9 4 7 6 3.7 4.8-.2-.9-2.8-21.9-66.3-29.4-89.1l21-6.1 31.2 96.6s28.8 32.5 78.2 37.1c49.4 4.5 84.8-21.8 84.8-21.8s76.6-124 80.3-129.3c3.7-5.4 7-11.1 6.6-14.4s-8.6-27.6-8.6-27.6l28-7.8s2.1 5.8 3.3 11.1 8.2 14.4 11.9 14.4 49.3-11 49.3-11l-1 45.2h-29.7c0-.2-.2-13.2 0-16.7z" fill="#16a4de"/><circle cx="817.9" cy="440.9" fill="#aaa" r="33.8"/><path d="m713.5 441.6c0 57.3 46.5 103.8 103.8 103.8" style="fill:none;stroke:#eaeaea;stroke-width:7;stroke-linecap:round;stroke-linejoin:round;stroke-miterlimit:10"/><path d="m817.9 266.3c-96.4 0-174.6 78.2-174.6 174.6s78.2 174.6 174.6 174.6 174.6-78.2 174.6-174.6-78.2-174.6-174.6-174.6zm0 325.5c-83.3 0-150.8-67.5-150.8-150.8s67.5-150.8 150.8-150.8 150.8 67.5 150.8 150.8c0 83.2-67.5 150.8-150.8 150.8z" fill="#5a5a5a"/><path d="m817.9 287.5c-84.7 0-153.4 68.7-153.4 153.4s68.7 153.4 153.4 153.4 153.4-68.7 153.4-153.4c.1-84.7-68.6-153.4-153.4-153.4zm0 293.4c-77.3 0-140-62.7-140-140s62.7-140 140-140 140 62.7 140 140-62.7 140-140 140z" fill="#aaa"/><path d="m245.5 444.9c-.4 1.4 1.4 8.9.4 14.2s-.7 12.1-.7 12.1l167.1 28 33.7 12.4s11.7 14.5 8.5 14.9-230.3-42.2-249.8-50.7-24.8-45.8 2.1-51.4 250.5-6.7 256.5-5.7c6 1.1 9.6 9.2 6 11-3.5 1.8-46.1 13.1-50 12.8-3.6-.4-173.4 1-173.8 2.4z" fill="#5a5a5a"/><path d="m359 296.4s-41.5 27.2-79.9 60.4c-35.9 31-64.6 61.2-74.3 75s-4.1 38 26.7 38.2c38.1.2 180 6.7 180 6.7l1.5-17.5s-151.9-1-165.7-3.6-24.6-23.1-9.5-39.5c6.3-6.9 37.1-38 68.9-61.4 44.1-32.4 89.9-57.1 92.2-55.8 3.9 2.2 18.7-6.2 17.4-8.8s-15.4-14.7-24-11.6c-8.7 2.9-21.2 10.4-33.3 17.9z" fill="#16a4de"/><circle cx="213.5" cy="460" fill="#aaa" r="13.7"/><path d="m461.5 418c-30.5 0-55.2 24.7-55.2 55.2s24.7 55.2 55.2 55.2 55.2-24.7 55.2-55.2-24.7-55.2-55.2-55.2zm0 91.8c-20.2 0-36.6-16.4-36.6-36.6s16.4-36.6 36.6-36.6 36.6 16.4 36.6 36.6-16.4 36.6-36.6 36.6z" fill="#5a5a5a"/><path d="m457 480.6.7 33.9 8.6.5-2.2-30.6 21.1 23.9 10.7-12.9-23.4-25.8 8.6-35.6-23.4-6 1.9 40.6-40.2 3.6 5.5 21.1z" fill="#5a5a5a"/><circle cx="462" cy="473.7" fill="#aaa" r="24.9"/><path d="m544.4 514.5c-8.2-5.2-71.4-43.4-80.6-48.2-9-4.7-19.8 8.6-9.6 17.1 10.1 8.5 78.5 44 84.3 47 7.9 4 17.8-8.4 5.9-15.9z" fill="#aaa"/><path d="m561.9 537.2h-37.6c-5.9 0-10.7-4.8-10.7-10.7 0-5.9 4.8-10.7 10.7-10.7h37.6c5.9 0 10.7 4.8 10.7 10.7 0 5.9-4.8 10.7-10.7 10.7z" fill="#3f3f3f"/><path d="m663.9 49.9 8.7-7.8s5.7 6 9.2 17c3.6 11 36.3 115.3 38.2 123.8 2.1 9.2-6.6 12.8-11.3 9.5-4.8-3.3-39.4-127.4-41.5-132.5-2.1-4.9-3.3-10-3.3-10z" fill="#16a4de"/><g style="fill:none;stroke-linecap:round;stroke-linejoin:round;stroke-miterlimit:10;stroke:#16a4de;stroke-width:5"><path d="m692.3 106.3s41.3-11.5 74.9-20.7c23.3-6.4 40.8-13.1 47.1-8.4 6.1 4.6 6 10.6 6.6 21.4.6 10.7 2.5 43 2.8 48.1.3 6.2-3.8 18.5-21.1 24.2s-93.5 24.1-93.5 24.1"/><path d="m823 139.9s-2.3 5.1-35 14.6-77.4 18.6-77.4 18.6"/><path d="m821.8 115.1s-1.7 4.5-34.6 14.7-81 20.4-81 20.4"/><path d="m819.8 94s1.4 1.8-36.5 13-82.9 21.8-82.9 21.8"/><path d="m784.1 81 16.8 89.6"/><path d="m751.2 91 21.5 86.8"/><path d="m720.4 99.3 24.9 84.8"/></g><path d="m680.5 36.8c1.1-1.1-1.5-20.3-15.7-23.4s-14.6 2.4-16.4 8.1c-1.7 5.7 13.5 27.1 20.3 25.3s8.7-6.8 11.8-10z" fill="#3f3f3f"/><circle cx="652.5" cy="29.6" fill="#5a5a5a" r="18.8"/><path d="m651.9 19.6s-21.3-8.3-30.2-10.1-17.8 16.1-5.3 21.7c13.8 6.1 30 9.6 34.2 10.3 4.1.7 15.1-14.2 1.3-21.9z" fill="#5a5a5a"/><path d="m399.7 235.6-21 6.1c-1.7-5-2.7-8-2.7-8l21.1-6z" fill="#eaeaea"/><path d="m380.2 234.7-29.6-81.7 15.5-6 27.7 83.6z" fill="#eaeaea"/><path d="m308.9 141.9c-.5 1.3 1.6 16.8 5.1 17.6s39 1.1 46.7.5 24.3-16.5 25.3-21.3-71.6-10.1-77.1 3.2z" fill="#3f3f3f"/><path d="m297 137.3s53.3 21.4 56.6 21.2c10.3-.8 21-18.3 36.7-20.5 15.8-2.3 39.9-5.6 44.2-7.4s-6.1-24.1-21.9-25.9-46.6 7-58.8 5-32.7-7.4-45.3-1.6c-12.6 5.7-14.4 25.1-11.5 29.2z" fill="#5a5a5a"/><path d="m811.4 257.4c-102.1 0-184.8 82.7-184.8 184.8 0 8.8.6 17.4 1.8 25.9 1.2-.8 24.6-10 55.5-11.5 45-2.1 102.8 3.4 104.8 2.6 3.4-1.3 1.1-7.6 2.9-11.8s6.9-8.7 4-13.6c-2.9-5-53.3-59-64.6-123.3-.9-4.9-2.8-8.4-2.9-10.8 25.5-16.1 50.9-22.5 83.3-22.5 7.4 0 14.7.5 21.8 1.4 3.7-4.1 8.4-10.4 11.4-18.1-10.7-2.1-21.8-3.1-33.2-3.1z" fill="#969696"/><path d="m651.3 449.1c3.5-.8 14.9-3.1 30.8-4.5 22.8-2 58.8 1.4 62 1.1 3.1-.3 5.1-1.4 8-8.5 2.8-7.1 8.2-18.8 9.4-21.3 1.1-2.6 1.1-5.4-4-12.2s-18.2-28.7-25-44.1c-6.8-15.3-14.2-38.4-15.3-41.8s-5.4-8.4-16.9 0-29.7 26.6-45.7 59c-14.6 29.2-15.9 59.6-15.6 66.4.2 6.8 6.8 7.1 12.3 5.9z" fill="#eaeaea"/><circle cx="817.9" cy="440.9" fill="#5a5a5a" r="17"/><path d="m714.9 267.7s27.4 88.5 37 109.5c9.7 20.9 51.1 70.2 58.5 74.1s20.4-3.7 11.4-13.9c-10.3-11.7-40.6-34.9-55.1-69s-35.6-108-35.6-108z" fill="#16a4de"/></svg>